<svg width="442" height="140" viewBox="0 0 442 140" fill="none" xmlns="http://www.w3.org/2000/svg">
<path fill-rule="evenodd" clip-rule="evenodd" d="M71.2978 42.6036L77.1452 32.492L87.793 38.6298L80.7854 50.7504L78.3963 54.8792L75.5946 59.7256H67.0032L64.2015 54.8792L61.8123 50.7504L52.2071 34.1378L62.8549 28L71.2978 42.6036ZM41.0416 45.0674L46.8876 55.1798L30.0004 55.1787L30 67.4554L49.2109 67.4557L53.9862 67.4541L59.5905 67.4545L63.8862 60.0252L61.0836 55.1792L58.6974 51.0488L51.6889 38.9287L41.0416 45.0674ZM45.5899 82.5758L33.8964 82.5751L33.896 70.2986L47.9121 70.2979L52.6874 70.2997L58.2917 70.2993L62.5874 77.7286L59.7848 82.5746L57.3986 86.705L47.7929 103.317L37.1456 97.1785L45.5899 82.5758ZM68.7023 97.3964L62.8548 107.508L52.207 101.37L59.2146 89.2496L61.6037 85.1208L64.4054 80.2744H72.9969L75.7986 85.1208L78.1877 89.2496L87.7929 105.862L77.1451 112L68.7023 97.3964ZM106.104 57.4247L94.41 57.424L102.854 42.8213L92.2071 36.6826L82.6014 53.2948L80.2152 57.4254L77.4126 62.2711L81.7083 69.7007L87.3126 69.7001L92.0879 69.7018L106.104 69.7012L106.104 57.4247ZM93.1123 84.8202L98.9584 94.9324L88.3111 101.071L81.3026 88.9512L78.9164 84.8209L76.1138 79.9749L80.4095 72.5455L86.0138 72.5459L90.7893 72.5444L110 72.5446L110 84.8211L93.1123 84.8202Z" fill="#F1F2F3"/>
<path fill-rule="evenodd" clip-rule="evenodd" d="M282.82 48.2685C267.237 48.2685 255.34 60.3454 255.34 77.0807C255.34 93.8179 267.342 106 282.924 106C291.559 106 298.402 102.186 302.298 95.6187H303.35V103.881H312.09V32L303.35 37.9769V58.3318H302.298C298.402 51.8696 291.348 48.2685 282.82 48.2685ZM283.873 56.213C295.245 56.213 303.562 65.323 303.562 77.0807C303.562 88.8403 295.244 98.0549 283.873 98.0549C272.501 98.0549 264.079 89.0507 264.079 77.0807C264.079 65.323 272.396 56.213 283.873 56.213ZM140 32L148.739 37.9769V57.1663H149.792C151.616 54.3887 154.105 52.1177 157.031 50.5627C159.956 49.0077 163.224 48.2187 166.533 48.2685C180.01 48.2685 188.644 58.1197 188.644 71.7846V103.881H179.904V71.7846C179.904 62.6752 174.534 56.213 165.375 56.213C156.426 56.213 148.741 63.099 148.741 72.6321V103.881H140.002L140 32ZM194.875 76.446C194.875 60.1326 206.667 48.2685 223.093 48.2685C239.306 48.2685 250.994 60.1326 250.994 76.5512V76.5551C250.994 77.614 250.994 78.8836 250.889 80.0471H203.822C205.086 90.8515 212.877 98.0549 223.724 98.0549C231.621 98.0549 238.57 94.0294 241.939 87.6742L249.204 91.3799C244.887 100.489 235.303 105.998 223.514 105.998C206.878 106 194.875 93.6063 194.875 76.446ZM241.833 72.3142C240.254 62.6752 232.778 56.213 222.671 56.213C212.879 56.213 205.403 62.6752 203.93 72.3142H241.833ZM321.911 50.3867H330.439V57.5901H331.39C333.812 52.7171 339.707 49.3276 345.604 49.3276C347.855 49.2865 350.086 49.7563 352.132 50.7023V58.859C349.62 57.8411 346.942 57.3021 344.235 57.2697C336.233 57.2697 330.653 64.4731 330.653 75.066V103.879H321.914L321.911 50.3867ZM376.524 72.1026C360.731 73.9034 352.729 80.8946 352.729 90.322C352.729 99.539 360.31 105.576 371.78 105.576C380.309 105.576 386.521 102.186 390.311 96.0424H391.262V103.883H400V68.3969C400 56.213 391.261 48.3743 377.469 48.3743C364.097 48.3743 355.358 55.5777 355.358 66.9117H364.202C364.097 60.2379 369.362 56.3194 377.363 56.3194C386.106 56.3194 391.264 60.9802 391.264 68.1829V70.3011L376.524 72.1026ZM391.264 77.8225V82.5897C391.264 91.5933 383.894 98.2665 373.052 98.2665C365.89 98.2665 361.467 95.195 361.467 90.1104C361.467 85.1317 365.679 80.8922 376.524 79.5175L391.264 77.8225Z" fill="#F1F2F3"/>
</svg>
